<svg width="118px" height="118px" viewBox="0 0 118 118" version="1.1" xmlns="http://www.w3.org/2000/svg" xmlns:xlink="http://www.w3.org/1999/xlink"><title>Land</title><desc>Created with Sketch.</desc><defs></defs><g id="Page-1" stroke="none" stroke-width="1" fill="none" fill-rule="evenodd"><g id="Kontakt" transform="translate(-466.000000, -320.000000)"><g id="Land" transform="translate(466.000000, 320.000000)"><circle id="Oval-Copy-5" fill="#494DE3" cx="59" cy="59" r="59"></circle><g id="Group-3" transform="translate(12.000000, 59.000000)"><path d="M0,0.608216556 C0,26.5655998 21.0426168,47.6082166 47,47.6082166 C72.9573832,47.6082166 94,26.5655998 94,0.608216556 L0,0.608216556 Z" id="Oval-Copy-6" fill="#B5B5B5"></path><path d="M47,47.6082166 C55.8172064,47.6082166 64.0673344,45.1802654 71.1182827,40.9564646 C76.4558316,37.7590587 81.1061966,33.5325502 84.7951761,28.5511406 C87.8489732,24.427449 90.2439524,19.786439 91.8245631,14.7836613 C93.2377936,10.3106574 94,5.54844841 94,0.608216556 L0,0.608216556 C0,5.54844841 0.762206399,10.3106574 2.17543687,14.7836613 L47,47.6082166 Z" id="Oval-Copy-6" fill="#696969"></path><path d="M71.1182827,40.9564646 C76.4558316,37.7590587 81.1061966,33.5325502 84.7951761,28.5511406 C87.8489732,24.427449 90.2439524,19.786439 91.8245631,14.7836613 C93.2377936,10.3106574 94,5.54844841 94,0.608216556 L0,0.608216556 L71.1182827,40.9564646 Z" id="Oval-Copy-6" fill="#B5B5B5"></path><path d="M84.7951761,28.5511406 C87.8489732,24.427449 90.2439524,19.786439 91.8245631,14.7836613 C93.2377936,10.3106574 94,5.54844841 94,0.608216556 C73.1111111,0.608216556 57.4444444,0.608216556 47,0.608216556 C40.9303278,0.608216556 33.0969944,0.608216556 23.5,0.608216556 L84.7951761,28.5511406 Z" id="Oval-Copy-6" fill="#696969"></path><path d="M91.8245631,14.7836613 C93.2377936,10.3106574 94,5.54844841 94,0.608216556 C73.1111111,0.608216556 57.4444444,0.608216556 47,0.608216556 L91.8245631,14.7836613 Z" id="Oval-Copy-6" fill="#B5B5B5"></path></g><g id="Group" transform="translate(52.000000, 19.910281)"><path d="M9.35049834,5.49719261 C9.35049834,2.6552657 6.99484173,0.351129165 6.99484173,0.351129165 C6.99484173,0.351129165 4.63958142,2.6552657 4.63958142,5.49719261 C4.63958142,8.33951583 6.99484173,10.6432561 6.99484173,10.6432561 C6.99484173,10.6432561 9.35049834,8.33951583 9.35049834,5.49719261" id="Fill-34" fill="#FFFFFF"></path><path d="M6.99484173,10.6432561 C6.99484173,10.6432561 9.35049834,8.33951583 9.35049834,5.49719261 C9.35049834,2.6552657 6.99484173,0.351129165 6.99484173,0.351129165 L6.99484173,10.6432561 Z" id="Fill-34" fill="#D8D8D8"></path><path d="M6.99127495,16.6516864 C6.99127495,16.6516864 7.15693183,13.3603459 5.22730665,11.2733863 C3.29728517,9.18721932 0.00396308313,9.09448317 0.00396308313,9.09448317 C0.00396308313,9.09448317 -0.161297483,12.3858237 1.76793138,14.472387 C3.69795287,16.5589502 6.99127495,16.6516864 6.99127495,16.6516864" id="Fill-35" fill="#FFFFFF"></path><path d="M6.99880481,16.6516864 C6.99880481,16.6516864 10.2921269,16.5589502 12.2221484,14.472387 C14.1513772,12.3858237 13.9861167,9.09448317 13.9861167,9.09448317 C13.9861167,9.09448317 10.6923983,9.18721932 8.76277311,11.2733863 C6.83314794,13.3603459 6.99880481,16.6516864 6.99880481,16.6516864" id="Fill-36" fill="#D8D8D8"></path><path d="M6.99127495,24.208097 C6.99127495,24.208097 7.15693183,20.9171528 5.22730665,18.8301932 C3.29728517,16.7436299 0.00396308313,16.6516864 0.00396308313,16.6516864 C0.00396308313,16.6516864 -0.161297483,19.9422343 1.76793138,22.0291939 C3.69795287,24.1153609 6.99127495,24.208097 6.99127495,24.208097" id="Fill-37" fill="#FFFFFF"></path><path d="M8.76277311,18.8301932 C6.83314794,20.9171528 6.99880481,24.208097 6.99880481,24.208097 C6.99880481,24.208097 10.2921269,24.1153609 12.2221484,22.0291939 C14.1513772,19.9422343 13.9861167,16.6516864 13.9861167,16.6516864 C13.9861167,16.6516864 10.6923983,16.7436299 8.76277311,18.8301932" id="Fill-38" fill="#D8D8D8"></path><path d="M6.99127495,31.7645076 C6.99127495,31.7645076 7.15693183,28.4739597 5.22730665,26.3870001 C3.29728517,24.3004368 0.00396308313,24.208097 0.00396308313,24.208097 C0.00396308313,24.208097 -0.161297483,27.4990412 1.76793138,29.5856045 C3.69795287,31.6725641 6.99127495,31.7645076 6.99127495,31.7645076" id="Fill-39" fill="#FFFFFF"></path><path d="M8.76277311,26.3870001 C6.83314794,28.4739597 6.99880481,31.7645076 6.99880481,31.7645076 C6.99880481,31.7645076 10.2921269,31.6725641 12.2221484,29.5856045 C14.1513772,27.4990412 13.9861167,24.208097 13.9861167,24.208097 C13.9861167,24.208097 10.6923983,24.3004368 8.76277311,26.3870001" id="Fill-40" fill="#D8D8D8"></path><path d="M6.99127495,39.3217108 C6.99127495,39.3217108 7.15693183,36.0303703 5.22730665,33.9434107 C3.29728517,31.8572438 0.00396308313,31.7645076 0.00396308313,31.7645076 C0.00396308313,31.7645076 -0.161297483,35.0558481 1.76793138,37.1428077 C3.69795287,39.2289747 6.99127495,39.3217108 6.99127495,39.3217108" id="Fill-41" fill="#FFFFFF"></path><path d="M8.76277311,33.9434107 C6.83314794,36.0303703 6.99880481,39.3217108 6.99880481,39.3217108 C6.99880481,39.3217108 10.2921269,39.2289747 12.2221484,37.1428077 C14.1513772,35.0558481 13.9861167,31.7645076 13.9861167,31.7645076 C13.9861167,31.7645076 10.6923983,31.8572438 8.76277311,33.9434107" id="Fill-42" fill="#D8D8D8"></path><path d="M6.99127495,46.8781214 C6.99127495,46.8781214 7.15693183,43.5871772 5.22730665,41.5006139 C3.29728517,39.4136544 0.00396308313,39.3217108 0.00396308313,39.3217108 C0.00396308313,39.3217108 -0.161297483,42.6122588 1.76793138,44.6992183 C3.69795287,46.7857816 6.99127495,46.8781214 6.99127495,46.8781214" id="Fill-43" fill="#FFFFFF"></path><path d="M8.76277311,41.5006139 C6.83314794,43.5871772 6.99880481,46.8781214 6.99880481,46.8781214 C6.99880481,46.8781214 10.2921269,46.7857816 12.2221484,44.6992183 C14.1513772,42.6122588 13.9861167,39.3217108 13.9861167,39.3217108 C13.9861167,39.3217108 10.6923983,39.4136544 8.76277311,41.5006139" id="Fill-44" fill="#D8D8D8"></path><path d="M8.76298082,49.0570245 C7.45238923,50.475412 7.10918623,52.4462532 7.02318733,53.5658242 L6.96730785,53.5658242 C6.88130895,52.4462532 6.53810595,50.475412 5.22751436,49.0570245 C3.29749287,46.9708576 0.00417079214,46.8781214 0.00417079214,46.8781214 C0.00417079214,46.8781214 -0.161089774,50.169462 1.76813909,52.2564216 C2.94517478,53.5289675 4.62591834,54.0576428 5.76134166,54.2779903 L5.76134166,60.4084836 L8.22915352,60.4084836 L8.22915352,54.2779903 C9.36418053,54.0576428 11.0453204,53.5289675 12.2223561,52.2564216 C14.151585,50.169462 13.9863244,46.8781214 13.9863244,46.8781214 C13.9863244,46.8781214 10.692606,46.9708576 8.76298082,49.0570245" id="Fill-47" fill="#FFFFFF"></path><path d="M6.96730785,60.4084836 L8.22915352,60.4084836 L8.22915352,54.2779903 C9.36418053,54.0576428 11.0453204,53.5289675 12.2223561,52.2564216 C14.151585,50.169462 13.9863244,46.8781214 13.9863244,46.8781214 C13.9863244,46.8781214 10.692606,46.9708576 8.76298082,49.0570245 C7.45238923,50.475412 7.10918623,52.4462532 7.02318733,53.5658242 L6.96730785,53.5658242 L6.96730785,60.4084836 Z" id="Fill-47" fill="#D8D8D8"></path></g><g id="Group" transform="translate(26.683984, 27.910281)"><path d="M9.35049834,5.49719261 C9.35049834,2.6552657 6.99484173,0.351129165 6.99484173,0.351129165 C6.99484173,0.351129165 4.63958142,2.6552657 4.63958142,5.49719261 C4.63958142,8.33951583 6.99484173,10.6432561 6.99484173,10.6432561 C6.99484173,10.6432561 9.35049834,8.33951583 9.35049834,5.49719261" id="Fill-34" fill="#FFFFFF"></path><path d="M6.99484173,10.6432561 C6.99484173,10.6432561 9.35049834,8.33951583 9.35049834,5.49719261 C9.35049834,2.6552657 6.99484173,0.351129165 6.99484173,0.351129165 L6.99484173,10.6432561 Z" id="Fill-34" fill="#D8D8D8"></path><path d="M6.99127495,16.6516864 C6.99127495,16.6516864 7.15693183,13.3603459 5.22730665,11.2733863 C3.29728517,9.18721932 0.00396308313,9.09448317 0.00396308313,9.09448317 C0.00396308313,9.09448317 -0.161297483,12.3858237 1.76793138,14.472387 C3.69795287,16.5589502 6.99127495,16.6516864 6.99127495,16.6516864" id="Fill-35" fill="#FFFFFF"></path><path d="M6.99880481,16.6516864 C6.99880481,16.6516864 10.2921269,16.5589502 12.2221484,14.472387 C14.1513772,12.3858237 13.9861167,9.09448317 13.9861167,9.09448317 C13.9861167,9.09448317 10.6923983,9.18721932 8.76277311,11.2733863 C6.83314794,13.3603459 6.99880481,16.6516864 6.99880481,16.6516864" id="Fill-36" fill="#D8D8D8"></path><path d="M6.99127495,24.208097 C6.99127495,24.208097 7.15693183,20.9171528 5.22730665,18.8301932 C3.29728517,16.7436299 0.00396308313,16.6516864 0.00396308313,16.6516864 C0.00396308313,16.6516864 -0.161297483,19.9422343 1.76793138,22.0291939 C3.69795287,24.1153609 6.99127495,24.208097 6.99127495,24.208097" id="Fill-37" fill="#FFFFFF"></path><path d="M8.76277311,18.8301932 C6.83314794,20.9171528 6.99880481,24.208097 6.99880481,24.208097 C6.99880481,24.208097 10.2921269,24.1153609 12.2221484,22.0291939 C14.1513772,19.9422343 13.9861167,16.6516864 13.9861167,16.6516864 C13.9861167,16.6516864 10.6923983,16.7436299 8.76277311,18.8301932" id="Fill-38" fill="#D8D8D8"></path><path d="M6.99127495,31.7645076 C6.99127495,31.7645076 7.15693183,28.4739597 5.22730665,26.3870001 C3.29728517,24.3004368 0.00396308313,24.208097 0.00396308313,24.208097 C0.00396308313,24.208097 -0.161297483,27.4990412 1.76793138,29.5856045 C3.69795287,31.6725641 6.99127495,31.7645076 6.99127495,31.7645076" id="Fill-39" fill="#FFFFFF"></path><path d="M8.76277311,26.3870001 C6.83314794,28.4739597 6.99880481,31.7645076 6.99880481,31.7645076 C6.99880481,31.7645076 10.2921269,31.6725641 12.2221484,29.5856045 C14.1513772,27.4990412 13.9861167,24.208097 13.9861167,24.208097 C13.9861167,24.208097 10.6923983,24.3004368 8.76277311,26.3870001" id="Fill-40" fill="#D8D8D8"></path><path d="M6.99127495,39.3217108 C6.99127495,39.3217108 7.15693183,36.0303703 5.22730665,33.9434107 C3.29728517,31.8572438 0.00396308313,31.7645076 0.00396308313,31.7645076 C0.00396308313,31.7645076 -0.161297483,35.0558481 1.76793138,37.1428077 C3.69795287,39.2289747 6.99127495,39.3217108 6.99127495,39.3217108" id="Fill-41" fill="#FFFFFF"></path><path d="M8.76277311,33.9434107 C6.83314794,36.0303703 6.99880481,39.3217108 6.99880481,39.3217108 C6.99880481,39.3217108 10.2921269,39.2289747 12.2221484,37.1428077 C14.1513772,35.0558481 13.9861167,31.7645076 13.9861167,31.7645076 C13.9861167,31.7645076 10.6923983,31.8572438 8.76277311,33.9434107" id="Fill-42" fill="#D8D8D8"></path><path d="M8.76298082,41.5006139 C7.45238923,42.9190014 7.10918623,44.8898426 7.02318733,46.0094136 L6.96730785,46.0094136 C6.88130895,44.8898426 6.53810595,42.9190014 5.22751436,41.5006139 C3.29749287,39.414447 0.00417079214,39.3217108 0.00417079214,39.3217108 C0.00417079214,39.3217108 -0.161089774,42.6130514 1.76813909,44.7000109 C2.94517478,45.9725569 4.62591834,46.5012322 5.76134166,46.7215797 L5.76134166,52.8520729 L8.22915352,52.8520729 L8.22915352,46.7215797 C9.36418053,46.5012322 11.0453204,45.9725569 12.2223561,44.7000109 C14.151585,42.6130514 13.9863244,39.3217108 13.9863244,39.3217108 C13.9863244,39.3217108 10.692606,39.414447 8.76298082,41.5006139" id="Fill-47" fill="#FFFFFF"></path><path d="M6.96730785,52.8520729 L8.22915352,52.8520729 L8.22915352,46.7215797 C9.36418053,46.5012322 11.0453204,45.9725569 12.2223561,44.7000109 C14.151585,42.6130514 13.9863244,39.3217108 13.9863244,39.3217108 C13.9863244,39.3217108 10.692606,39.414447 8.76298082,41.5006139 C7.45238923,42.9190014 7.10918623,44.8898426 7.02318733,46.0094136 L6.96730785,46.0094136 L6.96730785,52.8520729 Z" id="Fill-47" fill="#D8D8D8"></path></g><g id="Group-Copy" transform="translate(77.316016, 27.910281)"><path d="M9.35049834,5.49719261 C9.35049834,2.6552657 6.99484173,0.351129165 6.99484173,0.351129165 C6.99484173,0.351129165 4.63958142,2.6552657 4.63958142,5.49719261 C4.63958142,8.33951583 6.99484173,10.6432561 6.99484173,10.6432561 C6.99484173,10.6432561 9.35049834,8.33951583 9.35049834,5.49719261" id="Fill-34" fill="#FFFFFF"></path><path d="M6.99484173,10.6432561 C6.99484173,10.6432561 9.35049834,8.33951583 9.35049834,5.49719261 C9.35049834,2.6552657 6.99484173,0.351129165 6.99484173,0.351129165 L6.99484173,10.6432561 Z" id="Fill-34" fill="#D8D8D8"></path><path d="M6.99127495,16.6516864 C6.99127495,16.6516864 7.15693183,13.3603459 5.22730665,11.2733863 C3.29728517,9.18721932 0.00396308313,9.09448317 0.00396308313,9.09448317 C0.00396308313,9.09448317 -0.161297483,12.3858237 1.76793138,14.472387 C3.69795287,16.5589502 6.99127495,16.6516864 6.99127495,16.6516864" id="Fill-35" fill="#FFFFFF"></path><path d="M6.99880481,16.6516864 C6.99880481,16.6516864 10.2921269,16.5589502 12.2221484,14.472387 C14.1513772,12.3858237 13.9861167,9.09448317 13.9861167,9.09448317 C13.9861167,9.09448317 10.6923983,9.18721932 8.76277311,11.2733863 C6.83314794,13.3603459 6.99880481,16.6516864 6.99880481,16.6516864" id="Fill-36" fill="#D8D8D8"></path><path d="M6.99127495,24.208097 C6.99127495,24.208097 7.15693183,20.9171528 5.22730665,18.8301932 C3.29728517,16.7436299 0.00396308313,16.6516864 0.00396308313,16.6516864 C0.00396308313,16.6516864 -0.161297483,19.9422343 1.76793138,22.0291939 C3.69795287,24.1153609 6.99127495,24.208097 6.99127495,24.208097" id="Fill-37" fill="#FFFFFF"></path><path d="M8.76277311,18.8301932 C6.83314794,20.9171528 6.99880481,24.208097 6.99880481,24.208097 C6.99880481,24.208097 10.2921269,24.1153609 12.2221484,22.0291939 C14.1513772,19.9422343 13.9861167,16.6516864 13.9861167,16.6516864 C13.9861167,16.6516864 10.6923983,16.7436299 8.76277311,18.8301932" id="Fill-38" fill="#D8D8D8"></path><path d="M6.99127495,31.7645076 C6.99127495,31.7645076 7.15693183,28.4739597 5.22730665,26.3870001 C3.29728517,24.3004368 0.00396308313,24.208097 0.00396308313,24.208097 C0.00396308313,24.208097 -0.161297483,27.4990412 1.76793138,29.5856045 C3.69795287,31.6725641 6.99127495,31.7645076 6.99127495,31.7645076" id="Fill-39" fill="#FFFFFF"></path><path d="M8.76277311,26.3870001 C6.83314794,28.4739597 6.99880481,31.7645076 6.99880481,31.7645076 C6.99880481,31.7645076 10.2921269,31.6725641 12.2221484,29.5856045 C14.1513772,27.4990412 13.9861167,24.208097 13.9861167,24.208097 C13.9861167,24.208097 10.6923983,24.3004368 8.76277311,26.3870001" id="Fill-40" fill="#D8D8D8"></path><path d="M6.99127495,39.3217108 C6.99127495,39.3217108 7.15693183,36.0303703 5.22730665,33.9434107 C3.29728517,31.8572438 0.00396308313,31.7645076 0.00396308313,31.7645076 C0.00396308313,31.7645076 -0.161297483,35.0558481 1.76793138,37.1428077 C3.69795287,39.2289747 6.99127495,39.3217108 6.99127495,39.3217108" id="Fill-41" fill="#FFFFFF"></path><path d="M8.76277311,33.9434107 C6.83314794,36.0303703 6.99880481,39.3217108 6.99880481,39.3217108 C6.99880481,39.3217108 10.2921269,39.2289747 12.2221484,37.1428077 C14.1513772,35.0558481 13.9861167,31.7645076 13.9861167,31.7645076 C13.9861167,31.7645076 10.6923983,31.8572438 8.76277311,33.9434107" id="Fill-42" fill="#D8D8D8"></path><path d="M8.76298082,41.5006139 C7.45238923,42.9190014 7.10918623,44.8898426 7.02318733,46.0094136 L6.96730785,46.0094136 C6.88130895,44.8898426 6.53810595,42.9190014 5.22751436,41.5006139 C3.29749287,39.414447 0.00417079214,39.3217108 0.00417079214,39.3217108 C0.00417079214,39.3217108 -0.161089774,42.6130514 1.76813909,44.7000109 C2.94517478,45.9725569 4.62591834,46.5012322 5.76134166,46.7215797 L5.76134166,52.8520729 L8.22915352,52.8520729 L8.22915352,46.7215797 C9.36418053,46.5012322 11.0453204,45.9725569 12.2223561,44.7000109 C14.151585,42.6130514 13.9863244,39.3217108 13.9863244,39.3217108 C13.9863244,39.3217108 10.692606,39.414447 8.76298082,41.5006139" id="Fill-47" fill="#FFFFFF"></path><path d="M6.96730785,52.8520729 L8.22915352,52.8520729 L8.22915352,46.7215797 C9.36418053,46.5012322 11.0453204,45.9725569 12.2223561,44.7000109 C14.151585,42.6130514 13.9863244,39.3217108 13.9863244,39.3217108 C13.9863244,39.3217108 10.692606,39.414447 8.76298082,41.5006139 C7.45238923,42.9190014 7.10918623,44.8898426 7.02318733,46.0094136 L6.96730785,46.0094136 L6.96730785,52.8520729 Z" id="Fill-47" fill="#D8D8D8"></path></g></g></g></g></svg>